<?xml version="1.0" encoding="UTF-8"?>
<svg xmlns="http://www.w3.org/2000/svg" xmlns:xlink="http://www.w3.org/1999/xlink" viewBox="0 0 595.28 167.59">
  <defs>
    <style>
      .cls-1 {
        font-family: AllRoundGothic-Medium, 'All Round Gothic';
        font-size: 39.38px;
        font-weight: 500;
      }

      .cls-1, .cls-2 {
        fill: #fff;
      }

      .cls-3 {
        clip-path: url(#clippath-6);
      }

      .cls-4 {
        clip-path: url(#clippath-7);
      }

      .cls-5 {
        clip-path: url(#clippath-4);
      }

      .cls-6 {
        fill: #114b7b;
      }

      .cls-7 {
        fill: #0b4a7b;
      }

      .cls-8 {
        clip-path: url(#clippath-9);
      }

      .cls-9 {
        clip-path: url(#clippath-10);
      }

      .cls-10 {
        fill: #0b9ac6;
      }

      .cls-11 {
        fill: none;
      }

      .cls-12 {
        clip-path: url(#clippath-1);
      }

      .cls-13 {
        isolation: isolate;
      }

      .cls-14 {
        clip-path: url(#clippath-5);
      }

      .cls-15 {
        clip-path: url(#clippath-8);
      }

      .cls-16 {
        clip-path: url(#clippath-3);
      }

      .cls-17 {
        fill: #19a3dd;
      }

      .cls-18 {
        mix-blend-mode: screen;
      }

      .cls-19 {
        fill: #50c7e3;
      }

      .cls-20 {
        fill: #cfcfcf;
      }

      .cls-21 {
        clip-path: url(#clippath-2);
      }

      .cls-22 {
        mix-blend-mode: multiply;
        opacity: .81;
      }

      .cls-23 {
        fill: #737474;
      }

      .cls-24 {
        clip-path: url(#clippath);
      }
    </style>
    <clipPath id="clippath">
      <polyline class="cls-11" points="595.28 -23.45 0 -23.45 0 818.44 595.28 818.44"/>
    </clipPath>
    <clipPath id="clippath-1">
      <rect class="cls-11" y="0" width="595.28" height="167.59"/>
    </clipPath>
    <clipPath id="clippath-2">
      <rect class="cls-11" x="-110.59" y="0" width="845.66" height="167.63"/>
    </clipPath>
    <clipPath id="clippath-3">
      <rect class="cls-11" x="-78.82" y="-29.01" width="124.97" height="65.99"/>
    </clipPath>
    <clipPath id="clippath-4">
      <rect class="cls-11" x="-19.64" y="-10.4" width="520.95" height="182.54"/>
    </clipPath>
    <clipPath id="clippath-5">
      <rect class="cls-11" x="534.29" y="-42.1" width="169.36" height="124.47"/>
    </clipPath>
    <clipPath id="clippath-6">
      <rect class="cls-11" x="406.49" y="-144.53" width="321.11" height="264.8"/>
    </clipPath>
    <clipPath id="clippath-7">
      <rect class="cls-11" x="455.44" y="-39.24" width="399.27" height="264.55"/>
    </clipPath>
    <clipPath id="clippath-8">
      <rect class="cls-11" x="-89.76" y="-27.25" width="188.16" height="113.5"/>
    </clipPath>
    <clipPath id="clippath-9">
      <rect class="cls-11" x="-102.23" y="34.7" width="156.22" height="115.88"/>
    </clipPath>
    <clipPath id="clippath-10">
      <rect class="cls-11" x="179.27" y="49.18" width="235.82" height="36.05"/>
    </clipPath>
  </defs>
  <g class="cls-13">
    <g id="Layer_1" data-name="Layer 1">
      <g class="cls-24">
        <g class="cls-12">
          <g class="cls-22">
            <g class="cls-21">
              <rect class="cls-17" x="-110.59" y="0" width="845.66" height="167.64"/>
            </g>
          </g>
          <g class="cls-22">
            <g class="cls-16">
              <path class="cls-10" d="M-33.02-28.7c-.29.87-42.04,54.96-42.04,54.96-2.44,3.16-4.11,6.66-3.71,7.78.4,1.12,3.99,2.15,7.98,2.29l17.74.64c3.99.15,9.93-1.6,13.21-3.86L44.02-24.91c3.28-2.27,2.7-4.12-1.29-4.1l-75.75.31Z"/>
            </g>
          </g>
          <g class="cls-22">
            <g class="cls-5">
              <path class="cls-7" d="M426.62,172.15l45.37-69.1,26.81-40.68c2.19-3.33,3.14-9.21,2.09-13.06l-.21-.78c-1.04-3.85-4.93-8.2-8.64-9.67L361.21-9.26c-3.71-1.47-231-1.71-234.34.47L-16.17,78.78c-3.34,2.18-3.47,90.77-3.47,90.77l446.26,2.6Z"/>
            </g>
          </g>
          <g class="cls-22">
            <g class="cls-14">
              <path class="cls-10" d="M703.65-42.1c-.83.39-135.31,119.33-135.31,119.33-7.38,5.74-11.04,6.86-16.96,2.41l-14.49-11.67c-3.23-3.21-3.2-8.37-1.32-11.89l51.76-91.59c1.88-3.52,116.31-6.58,116.31-6.58"/>
            </g>
          </g>
          <g class="cls-18">
            <g class="cls-3">
              <path class="cls-23" d="M495.91,112.74s-9.52,12.88-25.21,4.95c-2.59-1.31-53.13-26.99-53.13-26.99-3.91-1.96-8.37-7.04-9.9-11.27l-.31-.86c-1.53-4.23-.99-10.5,1.2-13.93l100.39-157.18c2.19-3.43,6.9-7.7,10.47-9.49l70.54-35.42c3.57-1.79,9.89-3.06,14.05-2.82l123.6-4.26L495.91,112.74Z"/>
            </g>
          </g>
          <g class="cls-18">
            <g class="cls-4">
              <path class="cls-23" d="M733.42,225.31l-272.5-13.46c-3.1-3.31-5.57-10.65-5.48-16.3l.02-1.15c.1-5.66,2.99-13.42,6.44-17.26L619.99,1.09c3.45-3.84,9.7-8.2,13.89-9.68l82.76-29.36c4.19-1.49,10.89-1.72,14.88-.52l123.19,21.26-121.29,242.52Z"/>
            </g>
          </g>
          <g class="cls-22">
            <g class="cls-15">
              <path class="cls-19" d="M27.53-27.25c-3.99,0-9.89,1.93-13.11,4.28L-84.53,49.22c-3.22,2.35-5.56,7.53-5.2,11.5l.7,7.7c.36,3.97,3.79,8.13,7.63,9.24l28.05,8.1c3.83,1.11,9.73.27,13.1-1.86L95.55-1.85c3.37-2.13,3.81-6.17.98-8.98l-11.41-11.31c-2.83-2.81-8.42-5.11-12.4-5.11H27.53Z"/>
            </g>
          </g>
          <g class="cls-18">
            <g class="cls-8">
              <path class="cls-20" d="M-102.23,80.85c0-3.99,2.7-9.09,6-11.33l45.98-31.2c3.3-2.24,9.26-3.86,13.24-3.59l83.17,5.56c3.98.27,7.41,3.74,7.63,7.73l.18,3.29c.22,3.98-2.06,9.4-5.06,12.03l-104.59,79.54c-3,2.63-19.41,7.62-23.4,7.64l-15.89.07c-3.99.02-7.25-3.23-7.25-7.22v-62.51Z"/>
            </g>
          </g>
        </g>
      </g>
    </g>
    <g id="Layer_2" data-name="Layer 2">
      <g class="cls-9">
        <path class="cls-6" d="M295.51,78.78h-.21s0-.18,0-.48c0,.18,0,.29,0,.29,0,.11.09.2.2.2"/>
        <path class="cls-2" d="M297.32,61.46l-.03.03-.03-.03s-.01-.01-.02-.02h.05s.03.02.03.02Z"/>
        <path class="cls-2" d="M297.34,61.43s-.01.01-.02.02l-.03.03-.03-.03h.03s.05-.02.05-.02Z"/>
        <path class="cls-6" d="M299.28,78.78h0s-.21,0-.21,0c.11,0,.2-.09.2-.2,0,0,0-.12,0-.32,0,.33,0,.52,0,.52"/>
        <path class="cls-2" d="M309.6,78.78h-.02c.02-3.22.04-6.43.06-9.65,0-1.34,0-2.75-.55-3.99-.74-1.68-2.6-2.71-4.41-2.21-1.57.44-2.5,1.83-2.73,3.38,0,0-.02,9.98-.03,11.94h0c0,.22,0,.33,0,.33,0,.11-.09.2-.2.2h-3.57c-.11,0-.2-.09-.2-.2,0,0,0-.1,0-.29,0,0,0-.01,0-.02,0-1.8,0-3.59-.01-5.39,0-2.14.18-4.39,0-6.52-.06-.69-.29-1.36-.68-1.93-1.34-1.95-4.1-2.18-5.74-.45-1.61,1.69-1.25,4.18-1.25,6.33,0,2.03,0,4.05,0,6.08,0,.13,0,2.39,0,2.39h-3.92s.03-9.82,0-12.47c-.02-2.2,1.34-4.12,1.34-4.12h0s0,0,0,0l.49-.64c.79-.92,2.53-2.52,5.12-2.69,3.65-.24,5.33,1.2,6.57,2.58,0,0,.01.01.02.02l.03.03.03-.03s.01-.01.02-.02c1.24-1.38,2.92-2.82,6.57-2.58,2.6.17,4.33,1.77,5.12,2.69,0,0,0,0,0,0,.3.35.46.59.49.64,0,0,0,0,0,0,0,0,0,0,0,0,1.16,1.97,1.36,3.88,1.36,6.14,0,3.48-.02,6.97-.03,10.45-1.3,0-2.6,0-3.9,0"/>
        <path class="cls-2" d="M212.73,68.38c0,5.74-4.65,10.4-10.4,10.4-1.01,0-1.99-.14-2.92-.41.05.04.09.06.1.07,0,0,0,0,0,0-4.46-1.29-6.27-4.42-6.99-6.6,0,0,0-.02-.01-.03-.43-1.31-.47-2.27-.47-2.27v-2.56s-.06-14.2-.06-14.2c0-.07.06-.13.13-.13h3.81c.07,0,.13.06.13.13,0,.66-.01,3.71-.01,7.33,0,2.94,0,6.25,0,8.97,0,.09,0,.19,0,.28h0c.14,4.07,5.08,6.32,8.56,4.97,2.4-.93,4.04-3.36,4.05-5.93.01-2.24-1.21-4.43-3.18-5.52-.83-.46-1.76-.74-2.71-.84-.11-.01-.21-.02-.32-.03-.07,0-.13-.06-.13-.13v-3.75c0-.07.06-.13.13-.13,4.06.02,6.12,2.08,6.12,2.08l.05.05s0,0,.01,0c2.48,1.9,4.08,4.89,4.08,8.26"/>
        <path class="cls-2" d="M196.05,69.36c0-.09,0-.19,0-.28,0,.09,0,.19,0,.28"/>
        <path class="cls-2" d="M361.25,68.95c0,5.74-4.65,10.4-10.4,10.4-1.01,0-1.99-.14-2.92-.41.05.04.09.06.1.07,0,0,0,0,0,0-4.46-1.29-6.27-4.42-6.99-6.6,0,0,0-.02-.01-.03-.43-1.31-.47-2.27-.47-2.27v-2.56s-.06-14.2-.06-14.2c0-.07.06-.13.13-.13h3.81c.07,0,.13.06.13.13,0,.66-.01,3.71-.01,7.33,0,2.94,0,6.25,0,8.97,0,.09,0,.19,0,.28h0c.14,4.07,5.08,6.32,8.56,4.97,2.4-.93,4.04-3.36,4.05-5.93.01-2.24-1.21-4.43-3.18-5.52-.83-.46-1.76-.74-2.71-.84-.11-.01-.21-.02-.32-.03-.07,0-.13-.06-.13-.13v-3.75c0-.07.06-.13.13-.13,4.06.02,6.12,2.08,6.12,2.08l.05.05s0,0,.01,0c2.48,1.9,4.08,4.89,4.08,8.26"/>
        <path class="cls-2" d="M344.57,69.92c0-.09,0-.19,0-.28,0,.09,0,.19,0,.28"/>
        <path class="cls-2" d="M215.65,68.55c0-5.88,4.56-10.2,11.02-10.2s10.93,4.32,10.93,10.2v1.37h-17.81c.58,3.45,3.31,5.37,6.88,5.37,2.65,0,4.51-.78,5.72-2.47h4.35c-1.57,3.61-5.3,5.92-10.06,5.92-6.46,0-11.02-4.32-11.02-10.2M233.46,66.59c-.79-3.1-3.48-4.79-6.79-4.79s-5.96,1.73-6.75,4.79h13.54Z"/>
        <path class="cls-2" d="M239.77,72.63h3.98c.08,1.61,1.66,2.75,4.51,2.75s4.51-1.22,4.51-2.75c0-1.84-2.15-2.08-4.72-2.39-3.56-.43-7.87-1.06-7.87-5.49,0-3.81,3.15-6.39,8.04-6.39s7.91,2.63,7.99,5.96h-3.89c-.12-1.49-1.57-2.59-4.06-2.59-2.61,0-4.1,1.18-4.1,2.71,0,1.84,2.15,2.04,4.68,2.35,3.56.43,7.91,1.06,7.91,5.49,0,3.92-3.35,6.47-8.49,6.47s-8.37-2.59-8.49-6.12"/>
        <text class="cls-1" transform="translate(315.79 78.75)"><tspan x="0" y="0">o</tspan></text>
        <rect class="cls-2" x="364.17" y="58.31" width="3.93" height="20.46"/>
        <path class="cls-2" d="M381.59,68.57c0-5.88,4.31-10.2,10.43-10.2s10.35,4.31,10.35,10.2v1.37h-16.86c.55,3.45,3.14,5.37,6.51,5.37,2.51,0,4.27-.78,5.41-2.47h4.12c-1.49,3.61-5.02,5.92-9.53,5.92-6.12,0-10.43-4.31-10.43-10.2M398.45,66.61c-.75-3.1-3.29-4.78-6.43-4.78s-5.65,1.73-6.39,4.78h12.82Z"/>
        <path class="cls-2" d="M374.54,68.29v-15.6h-3.61v15.6c0,6.52,3.48,10.65,9.71,10.67v-3.7c-4.03-.02-6.1-2.66-6.1-6.97"/>
        <path class="cls-2" d="M263.62,61.79v6.16c0,4.28,2.35,6.89,6.94,6.92v3.67c-7.08-.02-11.05-4.12-11.05-10.59v-15.48h4.1v5.53h6.94v3.79h-6.94Z"/>
      </g>
    </g>
  </g>
</svg>